<?xml version="1.0" standalone="no"?>
<!DOCTYPE svg PUBLIC "-//W3C//DTD SVG 20010904//EN"
 "http://www.w3.org/TR/2001/REC-SVG-20010904/DTD/svg10.dtd">
<svg version="1.0" xmlns="http://www.w3.org/2000/svg"
 width="531.000000pt" height="352.000000pt" viewBox="0 0 531.000000 352.000000"
 preserveAspectRatio="xMidYMid meet">

<g transform="translate(0.000000,352.000000) scale(0.100000,-0.100000)"
fill="#000000" stroke="none">
<path d="M1579 3243 c-145 -4 -139 0 -139 -103 0 -105 -2 -103 115 -99 l101 4
108 -117 107 -118 -1 -739 0 -740 807 3 808 3 50 25 c96 49 265 188 265 218 0
6 12 23 28 38 l27 27 5 514 c3 283 3 533 2 557 l-4 42 -261 5 c-144 3 -545 4
-890 3 l-629 -1 3 65 3 65 -115 115 c-63 63 -137 143 -163 178 -40 50 -54 62
-75 60 -14 -1 -83 -4 -152 -5z m2084 -1093 l-4 -425 -27 -23 c-15 -13 -69 -55
-120 -93 l-93 -70 -671 1 -671 0 -3 207 c-2 115 -1 348 2 518 l7 310 792 0
792 0 -4 -425z"/>
<path d="M2610 2433 c-8 -3 -18 -11 -22 -17 -11 -16 -10 -70 2 -100 9 -24 14
-26 69 -26 33 0 63 5 66 11 10 16 7 111 -4 122 -11 11 -90 19 -111 10z"/>
<path d="M2938 2434 c-22 -7 -30 -37 -26 -90 2 -30 7 -39 20 -38 10 1 15 -2
12 -7 -3 -5 15 -9 40 -9 35 0 48 5 56 19 12 24 13 91 1 109 -9 14 -74 24 -103
16z"/>
<path d="M2266 2414 c-10 -27 -7 -99 6 -112 7 -7 33 -12 59 -12 38 0 51 5 63
22 22 30 20 81 -2 101 -25 23 -117 24 -126 1z"/>
<path d="M3235 2415 c-3 -8 -7 -22 -10 -31 -3 -9 0 -34 5 -55 11 -38 12 -39
58 -39 61 0 72 9 79 57 9 65 -8 83 -73 83 -40 0 -56 -4 -59 -15z m73 0 c-16
-13 -49 -25 -44 -16 4 6 2 11 -3 11 -6 0 -11 -5 -11 -12 0 -6 -3 -9 -6 -5 -12
12 6 24 36 24 16 0 29 -1 28 -2z"/>
<path d="M2278 2130 c-14 -9 -18 -25 -18 -71 0 -55 2 -60 27 -70 37 -14 101
-2 113 21 15 28 12 96 -5 110 -20 17 -96 23 -117 10z"/>
<path d="M2586 2118 c-25 -35 -20 -85 10 -115 22 -22 31 -24 67 -19 52 8 77
36 77 86 0 54 -20 70 -85 70 -44 0 -57 -4 -69 -22z"/>
<path d="M2910 2121 c-15 -29 -12 -83 6 -109 21 -30 108 -32 124 -3 14 27 13
104 -2 119 -7 7 -36 12 -65 12 -41 0 -54 -4 -63 -19z"/>
<path d="M3232 2128 c-17 -17 -15 -89 4 -116 20 -29 85 -31 114 -2 28 28 28
105 1 120 -27 14 -104 13 -119 -2z"/>
<path d="M2284 1830 c-41 -16 -41 -107 0 -135 30 -21 82 -19 106 5 27 27 28
105 2 119 -28 15 -85 21 -108 11z"/>
<path d="M2610 1833 c-23 -9 -30 -25 -30 -70 0 -47 26 -83 59 -83 47 0 79 13
90 36 16 35 14 89 -4 104 -17 14 -92 23 -115 13z"/>
<path d="M2922 1824 c-16 -11 -22 -25 -22 -55 0 -66 13 -79 73 -79 29 0 58 5
65 12 7 7 12 36 12 65 0 48 -3 54 -26 63 -37 14 -76 12 -102 -6z"/>
<path d="M3250 1831 c-21 -6 -25 -13 -28 -54 -5 -70 9 -87 68 -87 31 0 54 6
64 16 20 19 22 113 4 119 -31 9 -85 12 -108 6z"/>
<path d="M3974 3120 c-38 -15 -64 -59 -64 -107 0 -38 5 -50 34 -79 37 -37 70
-43 114 -20 56 29 77 73 61 131 -18 64 -85 99 -145 75z m82 -17 c3 -26 4 -28
13 -15 6 11 10 10 19 -1 9 -11 8 -13 -6 -12 -26 2 -43 15 -36 27 5 7 2 9 -7 6
-8 -3 -23 -1 -34 3 -15 6 -12 8 15 6 19 -1 36 -8 36 -14z m-63 -10 c-25 -9
-13 -23 11 -13 54 20 105 -73 61 -110 -8 -7 -13 -15 -11 -19 3 -4 -11 -5 -30
-3 -41 5 -78 45 -71 79 3 18 1 21 -8 13 -9 -8 -12 -4 -9 16 3 30 19 44 49 43
11 0 14 -3 8 -6z m113 -125 c4 -7 4 -10 -1 -6 -4 4 -15 2 -24 -5 -14 -11 -14
-10 -2 6 16 20 18 21 27 5z"/>
<path d="M2323 2994 c0 -16 2 -21 7 -14 4 7 12 10 18 6 6 -4 8 2 5 14 -8 29
-30 25 -30 -6z"/>
<path d="M574 2584 c-8 -20 -13 -39 -10 -42 3 -2 8 4 12 14 3 10 10 29 15 42
5 12 6 22 3 22 -3 0 -12 -16 -20 -36z"/>
<path d="M3950 2489 c0 -19 3 -64 7 -101 l6 -68 273 0 c150 0 280 3 289 6 47
18 60 120 20 159 -23 24 -30 25 -152 25 -70 0 -199 3 -285 7 l-158 6 0 -34z"/>
<path d="M609 2456 c13 -16 51 -41 51 -33 0 2 -15 14 -32 27 -21 15 -28 17
-19 6z"/>
<path d="M1533 2253 c-37 -21 -69 -60 -78 -95 -9 -37 49 -110 97 -122 46 -12
96 15 120 64 26 53 22 77 -19 120 -46 48 -77 57 -120 33z"/>
<path d="M4060 2182 l-105 -3 3 -89 3 -90 160 0 160 0 24 26 c14 15 25 34 26
43 3 42 -4 68 -24 88 -25 24 -78 30 -247 25z"/>
<path d="M4511 2166 c-26 -14 -50 -51 -51 -78 0 -9 12 -30 26 -47 43 -52 98
-41 133 26 16 31 -9 90 -44 103 -33 12 -35 12 -64 -4z"/>
<path d="M656 1885 c-13 -14 -30 -39 -37 -56 -11 -27 -10 -36 6 -66 11 -19 31
-41 46 -49 32 -16 134 -20 109 -4 -8 5 -26 10 -40 11 l-25 1 25 7 c17 5 21 9
12 15 -6 4 -12 14 -12 22 0 8 -12 25 -26 38 -24 20 -25 25 -14 47 12 22 12 23
-3 11 -9 -8 -21 -11 -27 -7 -5 3 -10 1 -10 -6 0 -7 -3 -9 -6 -6 -4 4 1 18 10
31 13 20 26 26 68 29 l53 3 -53 2 c-45 2 -56 -2 -76 -23z"/>
<path d="M675 1879 c-11 -17 1 -21 15 -4 8 9 8 15 2 15 -6 0 -14 -5 -17 -11z"/>
<path d="M4584 1880 c-29 -12 -71 -64 -79 -100 -9 -39 9 -91 41 -121 20 -19
37 -24 76 -24 58 0 84 23 113 99 17 43 17 46 -2 78 -30 51 -105 85 -149 68z"/>
<path d="M295 1835 c-16 -38 -9 -71 21 -95 16 -14 16 -13 1 17 -19 37 -21 66
-7 94 6 10 8 19 5 19 -3 0 -13 -16 -20 -35z"/>
<path d="M3962 1768 l3 -93 184 1 184 1 24 27 c13 15 23 38 23 52 0 37 -28 84
-56 94 -14 6 -102 10 -195 10 l-170 0 3 -92z"/>
<path d="M1405 1580 c-4 -6 6 -10 22 -10 22 0 25 2 13 10 -19 12 -27 12 -35 0z"/>
<path d="M913 1535 c-12 -8 -27 -31 -33 -50 -31 -95 91 -169 154 -94 14 17 26
41 26 54 0 78 -88 131 -147 90z"/>
<path d="M3974 1454 c-9 -35 28 -74 54 -58 9 6 18 21 20 33 8 51 -62 74 -74
25z"/>
<path d="M1420 1240 c6 -11 13 -20 16 -20 2 0 0 9 -6 20 -6 11 -13 20 -16 20
-2 0 0 -9 6 -20z"/>
<path d="M1478 1213 c12 -2 32 -2 45 0 12 2 2 4 -23 4 -25 0 -35 -2 -22 -4z"/>
<path d="M1022 1138 l-30 -63 21 -39 c42 -75 69 -96 125 -96 44 0 53 4 79 33
16 18 39 50 52 70 l22 36 -33 58 -34 58 -86 3 -86 3 -30 -63z"/>
<path d="M2078 1156 c-141 -41 -247 -155 -264 -284 -9 -68 18 -185 59 -253 39
-66 134 -133 204 -144 118 -17 84 -33 -54 -24 -54 4 -163 7 -242 8 l-144 1 7
-46 c3 -25 8 -50 11 -54 3 -5 160 -8 353 -6 191 2 390 4 443 5 93 1 97 2 103
24 6 24 43 47 76 47 21 0 63 -47 54 -61 -3 -5 121 -8 288 -8 161 1 282 4 269
6 l-23 5 24 12 c13 7 37 16 52 20 15 4 24 11 21 16 -3 6 2 10 12 11 10 1 33 2
50 4 21 2 30 -1 26 -8 -4 -6 -1 -7 6 -2 7 4 33 8 58 10 25 2 41 0 35 -4 -6 -4
0 -11 14 -18 13 -6 22 -8 19 -3 -3 4 2 11 11 14 24 9 31 7 14 -5 -12 -8 -10
-10 10 -5 22 4 23 4 8 -8 -27 -20 -22 -26 20 -28 20 -1 -8 -5 -63 -8 -62 -4
-2 -6 160 -6 l260 1 3 54 3 53 -158 -7 c-87 -3 -184 -8 -215 -10 -32 -2 -58
-1 -58 3 0 4 26 15 58 24 69 20 117 57 172 129 95 127 98 318 5 426 -105 123
-293 167 -436 101 -72 -33 -115 -71 -160 -141 -45 -69 -56 -125 -41 -213 27
-165 121 -274 270 -314 24 -6 42 -14 39 -16 -3 -3 -97 -4 -209 -3 -111 1 -382
2 -600 1 -363 -1 -464 5 -359 22 52 8 156 87 181 136 11 21 24 41 30 45 16 10
50 134 50 186 0 121 -95 253 -215 298 -74 28 -174 35 -237 17z m176 -204 c51
-29 71 -67 71 -131 -1 -98 -60 -161 -151 -161 -55 0 -118 41 -143 93 -30 61
-27 96 12 153 27 40 42 51 78 61 50 13 91 8 133 -15z m1296 6 c65 -33 93 -79
88 -145 -6 -72 -43 -126 -103 -148 -55 -21 -105 -11 -156 32 -89 75 -75 219
25 264 54 25 92 24 146 -3z m-1402 -585 c-10 -2 -26 -2 -35 0 -10 3 -2 5 17 5
19 0 27 -2 18 -5z"/>
<path d="M2770 961 c28 -5 31 -8 17 -14 -12 -4 -16 -13 -13 -25 12 -38 14
-101 3 -106 -7 -2 33 -4 88 -4 55 1 83 3 61 5 -35 4 -37 5 -20 18 18 14 18 14
-6 16 l-25 1 25 7 25 7 -23 8 -22 7 20 29 20 29 -42 10 -43 10 53 -3 c28 -2
52 1 52 5 0 5 -46 8 -102 8 -63 -1 -89 -4 -68 -8z"/>
<path d="M2900 890 c0 -5 5 -10 11 -10 5 0 7 5 4 10 -3 6 -8 10 -11 10 -2 0
-4 -4 -4 -10z"/>
<path d="M4050 433 c0 -58 6 -63 79 -63 76 0 91 9 91 57 0 39 -15 45 -107 41
l-63 -3 0 -32z"/>
<path d="M1412 448 c-18 -18 -14 -56 8 -78 15 -15 33 -20 74 -20 30 0 57 4 60
9 3 5 3 30 0 55 l-7 46 -61 0 c-35 0 -67 -5 -74 -12z"/>
</g>
</svg>
